# xmcd
#
# Track frame offsets:
#	150
#	11824
#	23415
#	36971
#	49212
#	61419
#	72534
#	83971
#	94800
#	106920
#	119201
#	130854
#	142337
#	155036
#	168443
#	181873
#	194201
#	206757
#	218769
#	231029
#
# Disc length: 3246 seconds
#
# Revision: 1
# Processed by: cddbd v1.5.2PL0 Copyright (c) Steve Scherf et al.
# Submitted via: audiograbber 1.83.01
#
DISCID=330cac14
DTITLE=Ray Price - The Essential Ray Price [CD1]
DYEAR=2007
DGENRE=Country
TTITLE0=Jealous Lies
TTITLE1=If You're Ever Lonely Darling
TTITLE2=Weary Blues (From Waiting)
TTITLE3=Talk to Your Heart
TTITLE4=Release Me
TTITLE5=I'll Be There (If You Ever Want Me)
TTITLE6=Crazy Arms
TTITLE7=You Done Me Wrong
TTITLE8=Wasted Words
TTITLE9=I've Got a New Heartache
TTITLE10=My Shoes Keep Walking Back to You
TTITLE11=Curtain in the Window
TTITLE12=Invitation to the Blues
TTITLE13=City Lights
TTITLE14=Heartaches By the Number
TTITLE15=The Same Ole Me
TTITLE16=One More Time
TTITLE17=I Wish I Could Fall in Love Today
TTITLE18=Heart Over Mind
TTITLE19=Soft Rain
EXTD=
EXTT0=
EXTT1=
EXTT2=
EXTT3=
EXTT4=
EXTT5=
EXTT6=
EXTT7=
EXTT8=
EXTT9=
EXTT10=
EXTT11=
EXTT12=
EXTT13=
EXTT14=
EXTT15=
EXTT16=
EXTT17=
EXTT18=
EXTT19=
PLAYORDER=
